' Copyright 2002-2021 CS GROUP
' Licensed to CS GROUP (CS) under one or more
' contributor license agreements.  See the NOTICE file distributed with
' this work for additional information regarding copyright ownership.
' CS licenses this file to You under the Apache License, Version 2.0
' (the "License"); you may not use this file except in compliance with
' the License.  You may obtain a copy of the License at
'
'   http://www.apache.org/licenses/LICENSE-2.0
'
' Unless required by applicable law or agreed to in writing, software
' distributed under the License is distributed on an "AS IS" BASIS,
' WITHOUT WARRANTIES OR CONDITIONS OF ANY KIND, either express or implied.
' See the License for the specific language governing permissions and
' limitations under the License.

@startuml

  skinparam svek                  true
  skinparam ClassBackgroundColor  #F3EFEB/CCC9C5
  skinparam ClassArrowColor       #691616
  skinparam ClassBorderColor      #691616
  skinparam NoteBackgroundColor   #F3EFEB
  skinparam NoteBorderColor       #691616
  skinparam NoteFontColor         #691616
  skinparam ClassFontSize         11
  skinparam PackageFontSize       12
  skinparam linetype              ortho

  package org.orekit #ECEBD8 {

    package files #DDEBD8 {

       package sp3 #CBDBC8 {
          class SP3File
       }

       package ilrs #CBDBC8 {
         class CPFFile
       }

      package general #CBDBC8 {

        class OrekitEphemerisFile

        interface EphemerisFileParser {
          +EphemerisFile parse(reader, fileName)
          +EphemerisFile parse(fileName)
        }

        interface EphemerisFileWriter {
          +write(EphemerisFile)
        }

        interface EphemerisFile {
          +getSatellites()
        }

        interface EphemerisFile.SatelliteEphemeris {
          +getId()
          +getStart()
          +getStop()
          +getPropagator()
        }

        interface EphemerisFile.EphemerisSegment {
          +getFrame()
          +getStart()
          +getStop()
          +getInterpolationSamples()
          +getAvailableDerivatives()
          +getCoordinates()
          +getPropagator()
        }

        SP3File ..|> EphemerisFile
        CPFFile ..|> EphemerisFile
        EphemerisFile.SatelliteEphemeris <--* EphemerisFile
        EphemerisFile.SatelliteEphemeris o--> EphemerisFile.EphemerisSegment

        OrekitEphemerisFile ..|> EphemerisFile
        EphemerisFile <-- EphemerisFileWriter
        EphemerisFile <-- EphemerisFileParser : create

      }

      package ccsds.ndm.odm #CBDBC8 {
        package oem #CCCCC7 {
          class OemWriter
          class StreamingOemWriter
          class OemFile
          EphemerisFile <|.. OemFile
          OemWriter --> StreamingOemWriter
          EphemerisFileWriter <|.. OemWriter
        }
      }
    }

    package propagation #DDEBD8 {
      interface BoundedPropagator
      BoundedPropagator <-left- EphemerisFile.SatelliteEphemeris
      BoundedPropagator <-- EphemerisFile.EphemerisSegment
    }

  }
@enduml
