' Copyright 2002-2026 CS GROUP
' Licensed to CS GROUP (CS) under one or more
' contributor license agreements.  See the NOTICE file distributed with
' this work for additional information regarding copyright ownership.
' CS licenses this file to You under the Apache License, Version 2.0
' (the "License"); you may not use this file except in compliance with
' the License.  You may obtain a copy of the License at
'
'   http://www.apache.org/licenses/LICENSE-2.0
'
' Unless required by applicable law or agreed to in writing, software
' distributed under the License is distributed on an "AS IS" BASIS,
' WITHOUT WARRANTIES OR CONDITIONS OF ANY KIND, either express or implied.
' See the License for the specific language governing permissions and
' limitations under the License.
 
@startuml

  skinparam svek                  true
  skinparam ClassBackgroundColor  #F3EFEB/CCC9C5
  skinparam ClassArrowColor       #691616
  skinparam ClassBorderColor      #691616
  skinparam NoteBackgroundColor   #F3EFEB
  skinparam NoteBorderColor       #691616
  skinparam NoteFontColor         #691616
  skinparam ClassFontSize         11
  skinparam PackageFontSize       12
  skinparam linetype              ortho

  package org.orekit #ECEBD8 {

    package attitude #DDEBD8 {
      interface AttitudeProvider
    }

    package utils #DDEBD8 {
      class TimeSpanMap
    }

    package forces.maneuvers.propulsion #DDEBD8 {

      interface PropulsionModel {
        +getName()
        +init()
        +getAcceleration()
        +getMassDerivatives()
        +getParametersDrivers()
        +getEventsDetectors()
        +getFieldEventsDetectors()
      }

      interface ThrustPropulsionModel {
        +getIsp()
        +getDirection()
        +getThrust()
        +getThrustVector()
        +getFlowRate()
      }

      interface ThrustDirectionProvider {
        +computeThrustDirection()
      }

      abstract class AbstractConstantThrustPropulsionModel
      class BasicConstantThrustPropulsionModel
      class ScaledConstantThrustPropulsionModel
      class ProfileThrustPropulsionModel
      class PolynomialThrustSegment

      class ThrustDirectionAndAttitudeProvider

      PropulsionModel <|.. ThrustPropulsionModel
      ThrustPropulsionModel <|-- AbstractConstantThrustPropulsionModel
      ThrustPropulsionModel <|-right- ProfileThrustPropulsionModel
      AbstractConstantThrustPropulsionModel <|-- BasicConstantThrustPropulsionModel
      AbstractConstantThrustPropulsionModel <|-- ScaledConstantThrustPropulsionModel

      AttitudeProvider <|.. ThrustDirectionAndAttitudeProvider
      ThrustDirectionAndAttitudeProvider <-- "1" ThrustDirectionProvider

      TimeSpanMap <-- ProfileThrustPropulsionModel
      TimeSpanMap --> PolynomialThrustSegment

    }

  }

  package org.hipparchus.analysis.polynomials #ECEBD8 {
    class PolynomialFunction
    PolynomialThrustSegment -right-> PolynomialFunction
  }

@enduml
