' Copyright 2002-2026 CS GROUP
' Licensed to CS GROUP (CS) under one or more
' contributor license agreements.  See the NOTICE file distributed with
' this work for additional information regarding copyright ownership.
' CS licenses this file to You under the Apache License, Version 2.0
' (the "License"); you may not use this file except in compliance with
' the License.  You may obtain a copy of the License at
'
'   http://www.apache.org/licenses/LICENSE-2.0
'
' Unless required by applicable law or agreed to in writing, software
' distributed under the License is distributed on an "AS IS" BASIS,
' WITHOUT WARRANTIES OR CONDITIONS OF ANY KIND, either express or implied.
' See the License for the specific language governing permissions and
' limitations under the License.
@startuml

  skinparam svek                  true
  skinparam ClassBackgroundColor  #F3EFEB/CCC9C5
  skinparam ClassArrowColor       #691616
  skinparam ClassBorderColor      #691616
  skinparam NoteBackgroundColor   #F3EFEB
  skinparam NoteBorderColor       #691616
  skinparam NoteFontColor         #691616
  skinparam ClassFontSize         11
  skinparam PackageFontSize       12
  skinparam linetype              ortho

  package org.orekit.propagation  {

  interface AdditionalDataProvider

  package events {
  interface EventDetector
  }

  package relative #ECEBD8{

    interface RelativeProvider

    AdditionalDataProvider <|-- RelativeProvider

    abstract class AbstractRelativeProvider implements RelativeProvider {
    }

    package clohessywiltshire #DDEBD8 {

        class ClohessyWiltshireEquations {
        + computeMatrices()
        }

        class ClohessyWiltshireMatrices {
        }

        class ClohessyWiltshireProvider
            AbstractRelativeProvider <|.. ClohessyWiltshireProvider


        class ClohessyWiltshireRendezVous{
        + computeRendezVous()
        }
    }

    package yamanakaankersen #DDEBD8 {

            class YamanakaAnkersenEquations {
            + computeMatrices()
            }

            class YamanakaAnkersenMatrices {
            }

            class YamanakaAnkersenProvider
            AbstractRelativeProvider <|.. YamanakaAnkersenProvider

            class YamanakaAnkersenRendezVous {
            + computeRendezVous()
            }
    }

    package maneuver #DDEBD8 {

            interface RelativeManeuver
                        EventDetector <|-- RelativeManeuver


            abstract class AbstractRelativeManeuver implements RelativeManeuver {
            }

            class ClohessyWiltshireManeuver extends AbstractRelativeManeuver {
            }

            class YamanakaAnkersenManeuver extends AbstractRelativeManeuver {
            }
    }


  }


@enduml