' Copyright 2002-2026 CS GROUP
' Licensed to CS GROUP (CS) under one or more
' contributor license agreements.  See the NOTICE file distributed with
' this work for additional information regarding copyright ownership.
' CS licenses this file to You under the Apache License, Version 2.0
' (the "License"); you may not use this file except in compliance with
' the License.  You may obtain a copy of the License at
'
'   http://www.apache.org/licenses/LICENSE-2.0
'
' Unless required by applicable law or agreed to in writing, software
' distributed under the License is distributed on an "AS IS" BASIS,
' WITHOUT WARRANTIES OR CONDITIONS OF ANY KIND, either express or implied.
' See the License for the specific language governing permissions and
' limitations under the License.
 
@startuml

  skinparam svek                  true
  skinparam ClassBackgroundColor  #F3EFEB/CCC9C5
  skinparam ClassArrowColor       #691616
  skinparam ClassBorderColor      #691616
  skinparam NoteBackgroundColor   #F3EFEB
  skinparam NoteBorderColor       #691616
  skinparam NoteFontColor         #691616
  skinparam ClassFontSize         11
  skinparam PackageFontSize       12
  skinparam linetype              ortho

  package org.orekit #ECEBD8 {

    package forces.maneuvers #DDEBD8 {
      class SmallManeuverAnalyticalModel
    }

    package propagation #DDEBD8 {

      package analytical #CBDBC8 {
        interface "AdapterPropagator.DifferentialEffect" as AdapterPropagator_DifferentialEffect {
          +SpacecraftState apply(SpacecraftState original);
        }

        class AdapterPropagator
        class J2DifferentialEffect

        AdapterPropagator_DifferentialEffect "*" <--o "1" AdapterPropagator
        J2DifferentialEffect ..|> AdapterPropagator_DifferentialEffect
        J2DifferentialEffect o--> AdapterPropagator_DifferentialEffect : "direct effect"

      }

      interface Propagator
      AdapterPropagator ..|> Propagator
      AdapterPropagator *--> Propagator : reference
     
    }

    SmallManeuverAnalyticalModel ..|> AdapterPropagator_DifferentialEffect

 }

@enduml
