' Copyright 2002-2026 CS GROUP
' Licensed to CS GROUP (CS) under one or more
' contributor license agreements.  See the NOTICE file distributed with
' this work for additional information regarding copyright ownership.
' CS licenses this file to You under the Apache License, Version 2.0
' (the "License"); you may not use this file except in compliance with
' the License.  You may obtain a copy of the License at
'
'   http://www.apache.org/licenses/LICENSE-2.0
'
' Unless required by applicable law or agreed to in writing, software
' distributed under the License is distributed on an "AS IS" BASIS,
' WITHOUT WARRANTIES OR CONDITIONS OF ANY KIND, either express or implied.
' See the License for the specific language governing permissions and
' limitations under the License.
 
@startuml

  skinparam svek                  true
  skinparam ClassBackgroundColor  #F3EFEB/CCC9C5
  skinparam ClassArrowColor       #691616
  skinparam ClassBorderColor      #691616
  skinparam NoteBackgroundColor   #F3EFEB
  skinparam NoteBorderColor       #691616
  skinparam NoteFontColor         #691616
  skinparam ClassFontSize         11
  skinparam PackageFontSize       12
  skinparam linetype              ortho

  package org.orekit #ECEBD8 {

    package time #DDEBD8 {
      interface TimeStamped {
        +AbsoluteDate getDate()
      }
      interface "TimeShiftable<T>" as TimeShiftable_T_ {
        +T shiftedBy(double dt)
      }
      interface "TimeInterpolator<T extends TimeStamped>" as TimeInterpolable_T_ {
        +T interpolate(AbsoluteDate date, Stream<T> sample)
        +T interpolate(AbsoluteDate date, Collection<T> sample)
      }
    }

    package utils #DDEBD8 {

      interface "TimeStampedCache<T extends TimeStamped>" as TimeStamptedCache_T_ {
        +List<T> getNeighbours(AbsoluteDate central)
      }
      note bottom
        provides thread-safety
      end note
      TimeStamped <--* TimeStamptedCache_T_
       TimeStamptedCache_T_ <|-- GenericTimeStampedCache
       TimeStamptedCache_T_ <|-- ImmutableTimeStampedCache

      class PVCoordinates {
        +PVCoordinates ZERO
        +Vector3D getPosition()
        +Vector3D getVelocity()
        +Vector3D getMomentum()
      }

      interface PVCoordinatesProvider {
        +PVCoordinates getPVCoordinates(AbsoluteDate date, Frame frame)
      }

      class AngularCoordinates {
        +AngularCoordinates IDENTITY
        +AngularCoordinates revert()
        +Rotation getRotation()
        +Vector3D getRotationRate()
        +{static} AngularCoordinates interpolate(...)
      }

      PVCoordinatesProvider -up-> PVCoordinates
      TimeShiftable_T_      <|..  PVCoordinates
      TimeShiftable_T_      <|..  AngularCoordinates

      interface Constants {
        +double SPEED_OF_LIGHT
        +double JULIAN_DAY
        +double WGS84_EARTH_EQUATORIAL_RADIUS
        +double WGS84_EARTH_FLATTENING
        +double WGS84_EARTH_...
        +double EIGEN5C_EARTH_...
        +double JPL_SSD_ASTRONOMICAL_UNIT
        +double JPL_SSD_...
        +double G0_STANDARD_GRAVITY
        +double IAU_2015_NOMINAL_EARTH_EQUATORIAL_RADIUS
        +double IAU_2015_NOMINAL_MARS_EQUATORIAL_RADIUS
        +double IAU_2015_NOMINAL_...
      }

      enum IERSConventions {
        +IERS_1996
        +IERS_2003
        +IERS_2010
      }

    }

    package frames #DDEBD8 {
      class TopocentricFrame
      PVCoordinatesProvider <|-- TopocentricFrame
   }

    package orbits #DDEBD8 {
      abstract class Orbit
      PVCoordinatesProvider <|.. Orbit
    }

    package propagation #DDEBD8 {
      interface Propagator
      PVCoordinatesProvider <|.. Propagator
    }

    package bodies #DDEBD8 {
      class CelestialBody
      PVCoordinatesProvider <|.. CelestialBody
    }

 }

@enduml
